<svg xmlns="http://www.w3.org/2000/svg" width="1600" height="900" viewBox="0 0 1600 900">
<defs><marker id="arrow" viewBox="0 0 10 10" refX="9" refY="5" markerWidth="8" markerHeight="8" orient="auto"><path d="M0 0L10 5L0 10Z" fill="context-stroke"/></marker><filter id="shadow"><feDropShadow dx="0" dy="4" stdDeviation="5" flood-color="#263C50" flood-opacity=".12"/></filter></defs>
<rect width="100%" height="100%" fill="#FFFFFF"/>
<text id="figure-title" x="800.0" y="58" text-anchor="middle" font-family="Arial" font-size="32" font-weight="700" fill="#233B53">Collaborative Multi-Agent RAG with Verification</text>
<g id="p1"><rect x="35" y="95" width="410" height="745" rx="25" fill="#F4F7FA" stroke="#CAD5DE" stroke-width="2"/><text x="57" y="133" font-family="Arial" font-size="21" font-weight="700" fill="#233B53">Inputs &amp; Context</text></g>
<g id="p2"><rect x="465" y="95" width="690" height="745" rx="25" fill="#F7F3FA" stroke="#CAD5DE" stroke-width="2"/><text x="487" y="133" font-family="Arial" font-size="21" font-weight="700" fill="#233B53">Core Reasoning</text></g>
<g id="p3"><rect x="1175" y="95" width="390" height="745" rx="25" fill="#F3F8F2" stroke="#CAD5DE" stroke-width="2"/><text x="1197" y="133" font-family="Arial" font-size="21" font-weight="700" fill="#233B53">Actions &amp; Objectives</text></g>
<g id="t1"><path d="M 380.0 260.0 L 505.0 222.5" fill="none" stroke="#4C86B6" stroke-width="4" marker-end="url(#arrow)"/>
</g>
<g id="t2"><path d="M 715.0 222.5 L 755.0 222.5" fill="none" stroke="#4C86B6" stroke-width="4" marker-end="url(#arrow)"/>
</g>
<g id="t3"><path d="M 715.0 222.5 L 1005.0 222.5" fill="none" stroke="#4C86B6" stroke-width="4" marker-end="url(#arrow)"/>
</g>
<g id="t4"><path d="M 610.0 305.0 L 810.0 380.0" fill="none" stroke="#4C86B6" stroke-width="4" marker-end="url(#arrow)"/>
</g>
<g id="t5"><path d="M 860.0 305.0 L 810.0 380.0" fill="none" stroke="#4C86B6" stroke-width="4" marker-end="url(#arrow)"/>
</g>
<g id="t6"><path d="M 1005.0 222.5 L 1065.0 447.5" fill="none" stroke="#4C86B6" stroke-width="4" marker-end="url(#arrow)"/>
</g>
<g id="t7"><path d="M 810.0 515.0 L 675.0 590.0" fill="none" stroke="#4C86B6" stroke-width="4" marker-end="url(#arrow)"/>
</g>
<g id="t8"><path d="M 810.0 515.0 L 950.0 590.0" fill="none" stroke="#4C86B6" stroke-width="4" marker-end="url(#arrow)"/>
</g>
<g id="t9"><path d="M 950.0 590.0 L 1367.5 380.0" fill="none" stroke="#4C86B6" stroke-width="4" marker-end="url(#arrow)"/>
</g>
<g id="t10"><path d="M 1115.0 222.5 L 1225.0 607.5" fill="none" stroke="#4C86B6" stroke-width="4" marker-end="url(#arrow)"/>
</g>
<g id="t11"><path d="M 1367.5 520.0 L 1060.0 305.0" fill="none" stroke="#D48345" stroke-width="4" stroke-dasharray="10 8" marker-end="url(#arrow)"/>
<text x="1213.8" y="400.5" text-anchor="middle" font-family="Arial" font-size="15" fill="#52677D" paint-order="stroke" stroke="#FFFFFF" stroke-width="7">observation</text>
</g>
<g id="query" filter="url(#shadow)"><rect x="90" y="180" width="290" height="160" rx="18" fill="#EAF2F8" stroke="#4C86B6" stroke-width="2.5"/>
<rect x="174.3" y="216.0" width="44.0" height="52.0" rx="5.9" fill="#FFFFFF" stroke="#233B53" stroke-width="2"/><rect x="252.6" y="216.0" width="43.1" height="52.0" rx="5.9" fill="#E8F1E5" stroke="#5B9561" stroke-width="2"/><line x1="220.3" y1="241.6" x2="249.7" y2="241.6" stroke="#4C86B6" stroke-width="3"/><line x1="183.1" y1="228.8" x2="208.6" y2="228.8" stroke="#9CAEBB" stroke-width="2"/><line x1="183.1" y1="238.4" x2="208.6" y2="238.4" stroke="#9CAEBB" stroke-width="2"/><line x1="183.1" y1="248.0" x2="208.6" y2="248.0" stroke="#9CAEBB" stroke-width="2"/>
<text x="235.0" y="309" text-anchor="middle" font-family="Arial" font-size="18" font-weight="700" fill="#233B53">Multimodal Request</text>
</g>
<g id="planner" filter="url(#shadow)"><rect x="505" y="140" width="210" height="165" rx="18" fill="#F1ECF7" stroke="#8062A8" stroke-width="2.5"/>
<circle cx="610.0" cy="188.1" r="11.3" fill="#E8E1F1" stroke="#8062A8" stroke-width="2"/><rect x="593.0" y="202.9" width="34.0" height="28.9" rx="8.5" fill="#EFE9F5" stroke="#8062A8" stroke-width="2"/><circle cx="571.0" cy="235.9" r="4.3" fill="#F5C686" stroke="#D48345" stroke-width="2"/><circle cx="610.0" cy="235.9" r="4.3" fill="#F5C686" stroke="#D48345" stroke-width="2"/><circle cx="649.0" cy="235.9" r="4.3" fill="#F5C686" stroke="#D48345" stroke-width="2"/><line x1="610.0" y1="221.9" x2="571.0" y2="231.0" stroke="#8062A8" stroke-width="2"/><line x1="610.0" y1="221.9" x2="610.0" y2="231.0" stroke="#8062A8" stroke-width="2"/><line x1="610.0" y1="221.9" x2="649.0" y2="231.0" stroke="#8062A8" stroke-width="2"/>
<text x="610.0" y="274" text-anchor="middle" font-family="Arial" font-size="18" font-weight="700" fill="#233B53">Planner Agent</text>
</g>
<g id="researcher" filter="url(#shadow)"><rect x="755" y="140" width="210" height="165" rx="18" fill="#F1ECF7" stroke="#8062A8" stroke-width="2.5"/>
<rect x="816.1" y="176.5" width="31.9" height="53.6" rx="4.3" fill="#FFFFFF" stroke="#233B53" stroke-width="2"/><rect x="872.8" y="176.5" width="31.2" height="53.6" rx="4.3" fill="#E8F1E5" stroke="#5B9561" stroke-width="2"/><line x1="849.4" y1="202.9" x2="870.6" y2="202.9" stroke="#4C86B6" stroke-width="3"/><line x1="822.4" y1="189.7" x2="840.9" y2="189.7" stroke="#9CAEBB" stroke-width="2"/><line x1="822.4" y1="199.6" x2="840.9" y2="199.6" stroke="#9CAEBB" stroke-width="2"/><line x1="822.4" y1="209.5" x2="840.9" y2="209.5" stroke="#9CAEBB" stroke-width="2"/><circle cx="860.0" cy="202.9" r="6.4" fill="#F5C686" stroke="#D48345" stroke-width="2"/><line x1="855.7" y1="208.7" x2="850.1" y2="216.9" stroke="#D48345" stroke-width="3"/>
<text x="860.0" y="274" text-anchor="middle" font-family="Arial" font-size="18" font-weight="700" fill="#233B53">Retrieval Agent</text>
</g>
<g id="coder" filter="url(#shadow)"><rect x="1005" y="140" width="110" height="165" rx="18" fill="#F1ECF7" stroke="#8062A8" stroke-width="2.5"/>
<rect x="1039.6" y="176.5" width="40.8" height="57.8" rx="3.7" fill="#F4E7D5" stroke="#D48345" stroke-width="2"/><rect x="1046.3" y="188.1" width="27.5" height="34.7" rx="1.5" fill="#FFFFFF" stroke="#233B53" stroke-width="2"/><line x1="1051.8" y1="197.1" x2="1058.1" y2="205.4" stroke="#233B53" stroke-width="3"/><line x1="1058.1" y1="205.4" x2="1051.8" y2="213.6" stroke="#233B53" stroke-width="3"/><line x1="1061.5" y1="214.5" x2="1070.8" y2="214.5" stroke="#4C86B6" stroke-width="3"/>
<text x="1060.0" y="274" text-anchor="middle" font-family="Arial" font-size="18" font-weight="700" fill="#233B53">Tool Agent</text>
</g>
<g id="bus" filter="url(#shadow)"><rect x="555" y="380" width="510" height="135" rx="18" fill="#F1ECF7" stroke="#8062A8" stroke-width="2.5"/>
<line x1="720.5" y1="418.9" x2="810.0" y2="412.1" stroke="#8062A8" stroke-width="2"/><line x1="810.0" y1="412.1" x2="899.5" y2="418.9" stroke="#8062A8" stroke-width="2"/><line x1="720.5" y1="418.9" x2="749.8" y2="452.6" stroke="#8062A8" stroke-width="2"/><line x1="810.0" y1="412.1" x2="749.8" y2="452.6" stroke="#8062A8" stroke-width="2"/><line x1="810.0" y1="412.1" x2="870.2" y2="452.6" stroke="#8062A8" stroke-width="2"/><line x1="899.5" y1="418.9" x2="870.2" y2="452.6" stroke="#8062A8" stroke-width="2"/><line x1="749.8" y1="452.6" x2="870.2" y2="452.6" stroke="#8062A8" stroke-width="2"/><circle cx="720.5" cy="418.9" r="6.8" fill="#A9D1E6" stroke="#233B53" stroke-width="2"/><circle cx="810.0" cy="412.1" r="6.8" fill="#E5B681" stroke="#233B53" stroke-width="2"/><circle cx="899.5" cy="418.9" r="6.8" fill="#A9CEA6" stroke="#233B53" stroke-width="2"/><circle cx="749.8" cy="452.6" r="6.8" fill="#C9B5DD" stroke="#233B53" stroke-width="2"/><circle cx="870.2" cy="452.6" r="6.8" fill="#E99F9B" stroke="#233B53" stroke-width="2"/><rect x="710.2" y="432.4" width="199.7" height="9.5" rx="6.9" fill="#FFFFFF" stroke="#8062A8" stroke-width="2"/>
<text x="810.0" y="484" text-anchor="middle" font-family="Arial" font-size="18" font-weight="700" fill="#233B53">Agent Message Bus</text>
</g>
<g id="memory" filter="url(#shadow)"><rect x="555" y="590" width="240" height="170" rx="18" fill="#EAF2F8" stroke="#4C86B6" stroke-width="2.5"/>
<path d="M 642.6 637.0 C 642.6 627.0, 707.4 627.0, 707.4 637.0 V 682.2 C 707.4 692.5, 642.6 692.5, 642.6 682.2 Z" fill="#E7F0F6" stroke="#233B53" stroke-width="2"/><rect x="652.3" y="644.0" width="6.5" height="18.7" rx="1.6" fill="#78B6D8" stroke="#233B53" stroke-width="1"/><rect x="662.9" y="656.8" width="6.5" height="18.7" rx="1.6" fill="#83BE8C" stroke="#233B53" stroke-width="1"/><rect x="673.4" y="644.0" width="6.5" height="18.7" rx="1.6" fill="#E6AD64" stroke="#233B53" stroke-width="1"/><rect x="683.9" y="656.8" width="6.5" height="18.7" rx="1.6" fill="#78B6D8" stroke="#233B53" stroke-width="1"/><rect x="694.4" y="644.0" width="6.5" height="18.7" rx="1.6" fill="#83BE8C" stroke="#233B53" stroke-width="1"/><circle cx="717.1" cy="652.5" r="7.3" fill="#E7DDF0" stroke="#8062A8" stroke-width="2"/><line x1="707.4" y1="652.5" x2="709.8" y2="652.5" stroke="#8062A8" stroke-width="3"/><line x1="714.7" y1="646.5" x2="720.4" y2="658.5" stroke="#8062A8" stroke-width="2"/>
<text x="675.0" y="709" text-anchor="middle" font-family="Arial" font-size="18" font-weight="700" fill="#233B53">Vector + Episodic</text>
<text x="675.0" y="730" text-anchor="middle" font-family="Arial" font-size="18" font-weight="700" fill="#233B53">Memory</text>
</g>
<g id="verifier" filter="url(#shadow)"><rect x="835" y="590" width="230" height="170" rx="18" fill="#F1ECF7" stroke="#8062A8" stroke-width="2.5"/>
<circle cx="921.3" cy="652.5" r="14.0" fill="#D9EAF4" stroke="#4C86B6" stroke-width="2"/><circle cx="977.9" cy="652.5" r="14.0" fill="#E8E1F1" stroke="#8062A8" stroke-width="2"/><line x1="935.3" y1="652.5" x2="964.0" y2="652.5" stroke="#C96863" stroke-width="3"/><line x1="964.0" y1="665.2" x2="935.3" y2="665.2" stroke="#5B9561" stroke-width="2" stroke-dasharray="6 4"/><path d="M 971.7 651.6 l 6 7 l 13 -16" fill="none" stroke="#5B9561" stroke-width="4"/><path d="M 950.0 622.8 L 962.4 629.5 L 960.1 645.7 L 950.0 654.2 L 939.9 645.7 L 937.6 629.5 Z" fill="#E7F1E4" stroke="#5B9561" stroke-width="2"/>
<text x="950.0" y="729" text-anchor="middle" font-family="Arial" font-size="18" font-weight="700" fill="#233B53">Critic / Verifier</text>
</g>
<g id="answer" filter="url(#shadow)"><rect x="1225" y="205" width="285" height="175" rx="18" fill="#EAF2F8" stroke="#4C86B6" stroke-width="2.5"/>
<rect x="1324.2" y="241.6" width="78.9" height="50.8" rx="6.7" fill="#E7EFF6" stroke="#233B53" stroke-width="2"/><rect x="1331.9" y="246.0" width="78.9" height="50.8" rx="6.7" fill="#D8E7F2" stroke="#233B53" stroke-width="2"/><rect x="1339.6" y="250.4" width="78.9" height="50.8" rx="6.7" fill="#C8DFEC" stroke="#233B53" stroke-width="2"/><rect x="1347.3" y="254.8" width="78.9" height="50.8" rx="6.7" fill="#B5D5E6" stroke="#233B53" stroke-width="2"/><line x1="1349.2" y1="261.8" x2="1404.1" y2="261.8" stroke="#FFFFFF" stroke-width="3"/><line x1="1349.2" y1="274.9" x2="1404.1" y2="274.9" stroke="#FFFFFF" stroke-width="3"/><line x1="1349.2" y1="288.0" x2="1404.1" y2="288.0" stroke="#FFFFFF" stroke-width="3"/><rect x="1311.7" y="302.0" width="11.5" height="10.5" rx="1.9" fill="#78B7D8" stroke="#233B53" stroke-width="1"/><rect x="1328.1" y="302.0" width="11.5" height="10.5" rx="1.9" fill="#91C49A" stroke="#233B53" stroke-width="1"/><rect x="1344.4" y="302.0" width="11.5" height="10.5" rx="1.9" fill="#E6B16D" stroke="#233B53" stroke-width="1"/><rect x="1360.8" y="302.0" width="11.5" height="10.5" rx="1.9" fill="#78B7D8" stroke="#233B53" stroke-width="1"/><rect x="1377.1" y="302.0" width="11.5" height="10.5" rx="1.9" fill="#91C49A" stroke="#233B53" stroke-width="1"/><rect x="1393.5" y="302.0" width="11.5" height="10.5" rx="1.9" fill="#E6B16D" stroke="#233B53" stroke-width="1"/><line x1="1417.5" y1="249.5" x2="1417.5" y2="289.8" stroke="#8062A8" stroke-width="3"/><line x1="1411.7" y1="284.5" x2="1417.5" y2="290.6" stroke="#8062A8" stroke-width="3"/><line x1="1423.3" y1="284.5" x2="1417.5" y2="290.6" stroke="#8062A8" stroke-width="3"/>
<text x="1367.5" y="349" text-anchor="middle" font-family="Arial" font-size="18" font-weight="700" fill="#233B53">Grounded Response</text>
</g>
<g id="tools" filter="url(#shadow)"><rect x="1225" y="520" width="285" height="175" rx="18" fill="#F9F0E4" stroke="#D48345" stroke-width="2.5"/>
<rect x="1314.6" y="557.5" width="105.8" height="61.3" rx="9.6" fill="#F4E7D5" stroke="#D48345" stroke-width="2"/><rect x="1331.9" y="569.8" width="71.2" height="36.8" rx="3.8" fill="#FFFFFF" stroke="#233B53" stroke-width="2"/><line x1="1346.3" y1="579.4" x2="1362.7" y2="588.1" stroke="#233B53" stroke-width="3"/><line x1="1362.7" y1="588.1" x2="1346.3" y2="596.9" stroke="#233B53" stroke-width="3"/><line x1="1371.3" y1="597.8" x2="1395.4" y2="597.8" stroke="#4C86B6" stroke-width="3"/>
<text x="1367.5" y="664" text-anchor="middle" font-family="Arial" font-size="18" font-weight="700" fill="#233B53">Tool Sandbox</text>
</g>
</svg>