<svg xmlns="http://www.w3.org/2000/svg" width="320" height="220" viewBox="0 0 160 110">
<rect x="1" y="1" width="158" height="108" rx="16" fill="#F9F0E4" stroke="#D48345" stroke-width="2"/>
<g id="cache-storage"><path d="M 40.0 30.0 C 40.0 20.0, 120.0 20.0, 120.0 30.0 V 85.0 C 120.0 97.0, 40.0 97.0, 40.0 85.0 Z" fill="#E7F0F6" stroke="#233B53" stroke-width="2"/><rect x="52.0" y="40.0" width="8.0" height="22.0" rx="2.0" fill="#78B6D8" stroke="#233B53" stroke-width="1"/><rect x="65.0" y="55.0" width="8.0" height="22.0" rx="2.0" fill="#83BE8C" stroke="#233B53" stroke-width="1"/><rect x="78.0" y="40.0" width="8.0" height="22.0" rx="2.0" fill="#E6AD64" stroke="#233B53" stroke-width="1"/><rect x="91.0" y="55.0" width="8.0" height="22.0" rx="2.0" fill="#78B6D8" stroke="#233B53" stroke-width="1"/><rect x="104.0" y="40.0" width="8.0" height="22.0" rx="2.0" fill="#83BE8C" stroke="#233B53" stroke-width="1"/><rect x="16.0" y="20.0" width="22.0" height="22.0" rx="4.0" fill="#F2E2CB" stroke="#D48345" stroke-width="2"/><rect x="16.0" y="48.0" width="22.0" height="22.0" rx="4.0" fill="#DDEBF4" stroke="#4C86B6" stroke-width="2"/><rect x="16.0" y="76.0" width="22.0" height="18.0" rx="4.0" fill="#E6F1E3" stroke="#5B9561" stroke-width="2"/><line x1="38.0" y1="31.0" x2="40.0" y2="31.0" stroke="#D48345" stroke-width="2"/><line x1="38.0" y1="59.0" x2="40.0" y2="59.0" stroke="#4C86B6" stroke-width="2"/><line x1="38.0" y1="85.0" x2="40.0" y2="85.0" stroke="#5B9561" stroke-width="2"/></g>
</svg>