<svg xmlns="http://www.w3.org/2000/svg" width="320" height="220" viewBox="0 0 160 110">
<rect x="1" y="1" width="158" height="108" rx="16" fill="#EAF2F8" stroke="#4C86B6" stroke-width="2"/>
<g id="decoder-only-llm"><rect x="35.0" y="19.0" width="82.0" height="58.0" rx="7.0" fill="#E7EFF6" stroke="#233B53" stroke-width="2"/><rect x="43.0" y="24.0" width="82.0" height="58.0" rx="7.0" fill="#D8E7F2" stroke="#233B53" stroke-width="2"/><rect x="51.0" y="29.0" width="82.0" height="58.0" rx="7.0" fill="#C8DFEC" stroke="#233B53" stroke-width="2"/><rect x="59.0" y="34.0" width="82.0" height="58.0" rx="7.0" fill="#B5D5E6" stroke="#233B53" stroke-width="2"/><line x1="61.0" y1="42.0" x2="118.0" y2="42.0" stroke="#FFFFFF" stroke-width="3"/><line x1="61.0" y1="57.0" x2="118.0" y2="57.0" stroke="#FFFFFF" stroke-width="3"/><line x1="61.0" y1="72.0" x2="118.0" y2="72.0" stroke="#FFFFFF" stroke-width="3"/><rect x="22.0" y="88.0" width="12.0" height="12.0" rx="2.0" fill="#78B7D8" stroke="#233B53" stroke-width="1"/><rect x="39.0" y="88.0" width="12.0" height="12.0" rx="2.0" fill="#91C49A" stroke="#233B53" stroke-width="1"/><rect x="56.0" y="88.0" width="12.0" height="12.0" rx="2.0" fill="#E6B16D" stroke="#233B53" stroke-width="1"/><rect x="73.0" y="88.0" width="12.0" height="12.0" rx="2.0" fill="#78B7D8" stroke="#233B53" stroke-width="1"/><rect x="90.0" y="88.0" width="12.0" height="12.0" rx="2.0" fill="#91C49A" stroke="#233B53" stroke-width="1"/><rect x="107.0" y="88.0" width="12.0" height="12.0" rx="2.0" fill="#E6B16D" stroke="#233B53" stroke-width="1"/><line x1="132.0" y1="28.0" x2="132.0" y2="74.0" stroke="#8062A8" stroke-width="3"/><line x1="126.0" y1="68.0" x2="132.0" y2="75.0" stroke="#8062A8" stroke-width="3"/><line x1="138.0" y1="68.0" x2="132.0" y2="75.0" stroke="#8062A8" stroke-width="3"/></g>
</svg>