<svg xmlns="http://www.w3.org/2000/svg" width="320" height="220" viewBox="0 0 160 110">
<rect x="1" y="1" width="158" height="108" rx="16" fill="#EAF4EA" stroke="#5B9561" stroke-width="2"/>
<g id="vision-transformer"><rect x="35.0" y="19.0" width="82.0" height="58.0" rx="7.0" fill="#E7EFF6" stroke="#233B53" stroke-width="2"/><rect x="43.0" y="24.0" width="82.0" height="58.0" rx="7.0" fill="#D8E7F2" stroke="#233B53" stroke-width="2"/><rect x="51.0" y="29.0" width="82.0" height="58.0" rx="7.0" fill="#C8DFEC" stroke="#233B53" stroke-width="2"/><rect x="59.0" y="34.0" width="82.0" height="58.0" rx="7.0" fill="#B5D5E6" stroke="#233B53" stroke-width="2"/><line x1="61.0" y1="42.0" x2="118.0" y2="42.0" stroke="#FFFFFF" stroke-width="3"/><line x1="61.0" y1="57.0" x2="118.0" y2="57.0" stroke="#FFFFFF" stroke-width="3"/><line x1="61.0" y1="72.0" x2="118.0" y2="72.0" stroke="#FFFFFF" stroke-width="3"/><rect x="8.0" y="28.0" width="24.0" height="54.0" rx="3.0" fill="#E6F1E3" stroke="#5B9561" stroke-width="2"/><line x1="16.0" y1="28.0" x2="16.0" y2="82.0" stroke="#FFFFFF" stroke-width="2"/><line x1="8.0" y1="46.0" x2="32.0" y2="46.0" stroke="#FFFFFF" stroke-width="2"/><line x1="24.0" y1="28.0" x2="24.0" y2="82.0" stroke="#FFFFFF" stroke-width="2"/><line x1="8.0" y1="64.0" x2="32.0" y2="64.0" stroke="#FFFFFF" stroke-width="2"/><line x1="33.0" y1="55.0" x2="43.0" y2="55.0" stroke="#5B9561" stroke-width="3"/></g>
</svg>