<svg xmlns="http://www.w3.org/2000/svg" width="1600" height="900" viewBox="0 0 1600 900">
<defs><marker id="arrow" viewBox="0 0 10 10" refX="9" refY="5" markerWidth="8" markerHeight="8" orient="auto"><path d="M0 0L10 5L0 10Z" fill="context-stroke"/></marker><filter id="shadow"><feDropShadow dx="0" dy="4" stdDeviation="5" flood-color="#263C50" flood-opacity=".12"/></filter></defs>
<rect width="100%" height="100%" fill="#FFFFFF"/>
<text id="figure-title" x="800.0" y="58" text-anchor="middle" font-family="Arial" font-size="32" font-weight="700" fill="#233B53">Multi-Scale Visual Recognition Pipeline</text>
<g id="p1"><rect x="35" y="95" width="410" height="745" rx="25" fill="#F4F7FA" stroke="#CAD5DE" stroke-width="2"/><text x="57" y="133" font-family="Arial" font-size="21" font-weight="700" fill="#233B53">Inputs &amp; Context</text></g>
<g id="p2"><rect x="465" y="95" width="690" height="745" rx="25" fill="#F7F3FA" stroke="#CAD5DE" stroke-width="2"/><text x="487" y="133" font-family="Arial" font-size="21" font-weight="700" fill="#233B53">Core Reasoning</text></g>
<g id="p3"><rect x="1175" y="95" width="390" height="745" rx="25" fill="#F3F8F2" stroke="#CAD5DE" stroke-width="2"/><text x="1197" y="133" font-family="Arial" font-size="21" font-weight="700" fill="#233B53">Actions &amp; Objectives</text></g>
<g id="r1"><path d="M 380.0 270.0 L 530.0 252.5" fill="none" stroke="#4C86B6" stroke-width="4" marker-end="url(#arrow)"/>
</g>
<g id="r2"><path d="M 780.0 252.5 L 840.0 252.5" fill="none" stroke="#4C86B6" stroke-width="4" marker-end="url(#arrow)"/>
</g>
<g id="r3"><path d="M 965.0 345.0 L 810.0 470.0" fill="none" stroke="#4C86B6" stroke-width="4" marker-end="url(#arrow)"/>
</g>
<g id="r4"><path d="M 935.0 560.0 L 1225.0 265.0" fill="none" stroke="#4C86B6" stroke-width="4" marker-end="url(#arrow)"/>
</g>
<g id="r5"><path d="M 935.0 560.0 L 1225.0 585.0" fill="none" stroke="#4C86B6" stroke-width="4" marker-end="url(#arrow)"/>
</g>
<g id="image" filter="url(#shadow)"><rect x="90" y="180" width="290" height="180" rx="18" fill="#EAF4EA" stroke="#5B9561" stroke-width="2.5"/>
<rect x="174.3" y="218.0" width="56.8" height="63.0" rx="3.9" fill="#E8F1E5" stroke="#5B9561" stroke-width="2"/><line x1="192.9" y1="218.0" x2="192.9" y2="281.0" stroke="#FFFFFF" stroke-width="2"/><line x1="174.3" y1="238.7" x2="231.1" y2="238.7" stroke="#FFFFFF" stroke-width="2"/><line x1="211.5" y1="218.0" x2="211.5" y2="281.0" stroke="#FFFFFF" stroke-width="2"/><line x1="174.3" y1="259.4" x2="231.1" y2="259.4" stroke="#FFFFFF" stroke-width="2"/><rect x="246.7" y="228.8" width="7.8" height="40.5" rx="2.0" fill="#7FB9D7" stroke="#233B53" stroke-width="1"/><rect x="256.5" y="239.6" width="7.8" height="40.5" rx="2.0" fill="#91C49A" stroke="#233B53" stroke-width="1"/><rect x="266.3" y="228.8" width="7.8" height="40.5" rx="2.0" fill="#E6B26E" stroke="#233B53" stroke-width="1"/><rect x="276.1" y="239.6" width="7.8" height="40.5" rx="2.0" fill="#7FB9D7" stroke="#233B53" stroke-width="1"/><rect x="285.9" y="228.8" width="7.8" height="40.5" rx="2.0" fill="#91C49A" stroke="#233B53" stroke-width="1"/><line x1="233.0" y1="249.5" x2="243.8" y2="249.5" stroke="#4C86B6" stroke-width="3"/>
<text x="235.0" y="329" text-anchor="middle" font-family="Arial" font-size="18" font-weight="700" fill="#233B53">Input Image</text>
</g>
<g id="backbone" filter="url(#shadow)"><rect x="530" y="160" width="250" height="185" rx="18" fill="#EAF4EA" stroke="#5B9561" stroke-width="2.5"/>
<rect x="617.0" y="197.6" width="69.2" height="53.7" rx="5.9" fill="#E7EFF6" stroke="#233B53" stroke-width="2"/><rect x="623.8" y="202.2" width="69.2" height="53.7" rx="5.9" fill="#D8E7F2" stroke="#233B53" stroke-width="2"/><rect x="630.5" y="206.8" width="69.2" height="53.7" rx="5.9" fill="#C8DFEC" stroke="#233B53" stroke-width="2"/><rect x="637.3" y="211.5" width="69.2" height="53.7" rx="5.9" fill="#B5D5E6" stroke="#233B53" stroke-width="2"/><line x1="639.0" y1="218.9" x2="687.1" y2="218.9" stroke="#FFFFFF" stroke-width="3"/><line x1="639.0" y1="232.7" x2="687.1" y2="232.7" stroke="#FFFFFF" stroke-width="3"/><line x1="639.0" y1="246.6" x2="687.1" y2="246.6" stroke="#FFFFFF" stroke-width="3"/><rect x="594.2" y="205.9" width="20.2" height="50.0" rx="2.5" fill="#E6F1E3" stroke="#5B9561" stroke-width="2"/><line x1="601.0" y1="205.9" x2="601.0" y2="255.9" stroke="#FFFFFF" stroke-width="2"/><line x1="594.2" y1="222.6" x2="614.5" y2="222.6" stroke="#FFFFFF" stroke-width="2"/><line x1="607.8" y1="205.9" x2="607.8" y2="255.9" stroke="#FFFFFF" stroke-width="2"/><line x1="594.2" y1="239.2" x2="614.5" y2="239.2" stroke="#FFFFFF" stroke-width="2"/><line x1="615.3" y1="230.9" x2="623.8" y2="230.9" stroke="#5B9561" stroke-width="3"/>
<text x="655.0" y="314" text-anchor="middle" font-family="Arial" font-size="18" font-weight="700" fill="#233B53">CNN Backbone</text>
</g>
<g id="pyramid" filter="url(#shadow)"><rect x="840" y="160" width="250" height="185" rx="18" fill="#EAF4EA" stroke="#5B9561" stroke-width="2.5"/>
<rect x="916.1" y="201.3" width="71.7" height="53.7" rx="2.5" fill="#C8E0D1" stroke="#5B9561" stroke-width="2"/><rect x="934.6" y="209.6" width="54.8" height="42.6" rx="2.5" fill="#B6D7C2" stroke="#5B9561" stroke-width="2"/><rect x="953.2" y="217.9" width="38.0" height="31.5" rx="2.5" fill="#9DC9AD" stroke="#5B9561" stroke-width="2"/>
<text x="965.0" y="314" text-anchor="middle" font-family="Arial" font-size="18" font-weight="700" fill="#233B53">Feature Pyramid</text>
</g>
<g id="attention" filter="url(#shadow)"><rect x="685" y="470" width="250" height="180" rx="18" fill="#EAF4EA" stroke="#5B9561" stroke-width="2.5"/>
<circle cx="778.8" cy="535.0" r="15.2" fill="#D9EAF4" stroke="#4C86B6" stroke-width="2"/><circle cx="840.4" cy="535.0" r="15.2" fill="#E8E1F1" stroke="#8062A8" stroke-width="2"/><line x1="794.0" y1="535.0" x2="825.2" y2="535.0" stroke="#C96863" stroke-width="3"/><line x1="825.2" y1="548.5" x2="794.0" y2="548.5" stroke="#5B9561" stroke-width="2" stroke-dasharray="6 4"/><path d="M 833.6 534.1 l 6 7 l 13 -16" fill="none" stroke="#5B9561" stroke-width="4"/><rect x="753.5" y="508.0" width="15.2" height="16.2" rx="3.4" fill="#DDEBF4" stroke="#4C86B6" stroke-width="2"/><rect x="753.5" y="554.8" width="15.2" height="16.2" rx="3.4" fill="#F3E4D0" stroke="#D48345" stroke-width="2"/>
<text x="810.0" y="619" text-anchor="middle" font-family="Arial" font-size="18" font-weight="700" fill="#233B53">Spatial Attention</text>
</g>
<g id="detect" filter="url(#shadow)"><rect x="1225" y="180" width="285" height="170" rx="18" fill="#EAF4EA" stroke="#5B9561" stroke-width="2.5"/>
<rect x="1309.8" y="215.3" width="115.4" height="63.8" rx="3.8" fill="#EAF2F8" stroke="#4C86B6" stroke-width="2"/><rect x="1327.1" y="228.1" width="33.7" height="26.4" rx="1.9" fill="none" stroke="#C96863" stroke-width="2"/><rect x="1369.4" y="234.0" width="40.4" height="32.3" rx="1.9" fill="none" stroke="#D48345" stroke-width="2"/>
<text x="1367.5" y="319" text-anchor="middle" font-family="Arial" font-size="18" font-weight="700" fill="#233B53">Detection Head</text>
</g>
<g id="segment" filter="url(#shadow)"><rect x="1225" y="500" width="285" height="170" rx="18" fill="#EAF4EA" stroke="#5B9561" stroke-width="2.5"/>
<rect x="1309.8" y="535.3" width="115.4" height="63.8" rx="3.8" fill="#EAF2F8" stroke="#4C86B6" stroke-width="2"/><path d="M 1319.8 589.3 C 1343.8 555.3, 1367.8 605.3, 1389.8 563.3 C 1408.8 544.3, 1424.8 557.3, 1429.8 571.3 V 610.3 H 1309.8 Z" fill="#9ACB9C" opacity=".8"/>
<text x="1367.5" y="639" text-anchor="middle" font-family="Arial" font-size="18" font-weight="700" fill="#233B53">Segmentation Head</text>
</g>
</svg>