<svg xmlns="http://www.w3.org/2000/svg" width="1600" height="900" viewBox="0 0 1600 900">
<defs><marker id="arrow" viewBox="0 0 10 10" refX="9" refY="5" markerWidth="8" markerHeight="8" orient="auto"><path d="M0 0L10 5L0 10Z" fill="context-stroke"/></marker><filter id="shadow"><feDropShadow dx="0" dy="4" stdDeviation="5" flood-color="#263C50" flood-opacity=".12"/></filter></defs>
<rect width="100%" height="100%" fill="#FFFFFF"/>
<text id="figure-title" x="800.0" y="58" text-anchor="middle" font-family="Arial" font-size="32" font-weight="700" fill="#233B53">Scalable LLM Inference Service</text>
<g id="p1"><rect x="35" y="95" width="410" height="745" rx="25" fill="#F4F7FA" stroke="#CAD5DE" stroke-width="2"/><text x="57" y="133" font-family="Arial" font-size="21" font-weight="700" fill="#233B53">Inputs &amp; Context</text></g>
<g id="p2"><rect x="465" y="95" width="690" height="745" rx="25" fill="#F7F3FA" stroke="#CAD5DE" stroke-width="2"/><text x="487" y="133" font-family="Arial" font-size="21" font-weight="700" fill="#233B53">Core Reasoning</text></g>
<g id="p3"><rect x="1175" y="95" width="390" height="745" rx="25" fill="#F3F8F2" stroke="#CAD5DE" stroke-width="2"/><text x="1197" y="133" font-family="Arial" font-size="21" font-weight="700" fill="#233B53">Actions &amp; Objectives</text></g>
<g id="r1"><path d="M 380.0 265.0 L 520.0 242.5" fill="none" stroke="#4C86B6" stroke-width="4" marker-end="url(#arrow)"/>
</g>
<g id="r2"><path d="M 760.0 242.5 L 820.0 242.5" fill="none" stroke="#4C86B6" stroke-width="4" marker-end="url(#arrow)"/>
</g>
<g id="r3"><path d="M 940.0 330.0 L 800.0 475.0" fill="none" stroke="#4C86B6" stroke-width="4" marker-end="url(#arrow)"/>
</g>
<g id="r4"><path d="M 950.0 570.0 L 1225.0 257.5" fill="none" stroke="#4C86B6" stroke-width="4" marker-end="url(#arrow)"/>
</g>
<g id="r5"><path d="M 1225.0 257.5 L 950.0 570.0" fill="none" stroke="#8062A8" stroke-width="4" stroke-dasharray="10 8" marker-end="url(#arrow)"/>
<text x="1087.5" y="401.8" text-anchor="middle" font-family="Arial" font-size="15" fill="#52677D" paint-order="stroke" stroke="#FFFFFF" stroke-width="7">reuse</text>
</g>
<g id="r6"><path d="M 950.0 570.0 L 1225.0 582.5" fill="none" stroke="#4C86B6" stroke-width="4" marker-end="url(#arrow)"/>
</g>
<g id="request" filter="url(#shadow)"><rect x="90" y="180" width="290" height="170" rx="18" fill="#F9F0E4" stroke="#D48345" stroke-width="2.5"/>
<rect x="168.4" y="229.8" width="37.2" height="34.0" rx="5.9" fill="#F3E4CF" stroke="#D48345" stroke-width="2"/><line x1="205.6" y1="246.8" x2="235.0" y2="246.8" stroke="#D48345" stroke-width="3"/><rect x="244.8" y="212.8" width="53.8" height="18.7" rx="4.9" fill="#E6EEF4" stroke="#4C86B6" stroke-width="2"/><line x1="235.0" y1="246.8" x2="244.8" y2="222.1" stroke="#4C86B6" stroke-width="2"/><rect x="244.8" y="238.2" width="53.8" height="18.7" rx="4.9" fill="#E6EEF4" stroke="#4C86B6" stroke-width="2"/><line x1="235.0" y1="246.8" x2="244.8" y2="247.6" stroke="#4C86B6" stroke-width="2"/><rect x="244.8" y="263.8" width="53.8" height="18.7" rx="4.9" fill="#E6EEF4" stroke="#4C86B6" stroke-width="2"/><line x1="235.0" y1="246.8" x2="244.8" y2="273.1" stroke="#4C86B6" stroke-width="2"/>
<text x="235.0" y="319" text-anchor="middle" font-family="Arial" font-size="18" font-weight="700" fill="#233B53">API Request</text>
</g>
<g id="gateway" filter="url(#shadow)"><rect x="520" y="155" width="240" height="175" rx="18" fill="#F9F0E4" stroke="#D48345" stroke-width="2.5"/>
<rect x="584.9" y="205.6" width="30.8" height="35.0" rx="4.9" fill="#F3E4CF" stroke="#D48345" stroke-width="2"/><line x1="615.7" y1="223.1" x2="640.0" y2="223.1" stroke="#D48345" stroke-width="3"/><rect x="648.1" y="188.1" width="44.6" height="19.3" rx="4.1" fill="#E6EEF4" stroke="#4C86B6" stroke-width="2"/><line x1="640.0" y1="223.1" x2="648.1" y2="197.8" stroke="#4C86B6" stroke-width="2"/><rect x="648.1" y="214.4" width="44.6" height="19.3" rx="4.1" fill="#E6EEF4" stroke="#4C86B6" stroke-width="2"/><line x1="640.0" y1="223.1" x2="648.1" y2="224.0" stroke="#4C86B6" stroke-width="2"/><rect x="648.1" y="240.6" width="44.6" height="19.3" rx="4.1" fill="#E6EEF4" stroke="#4C86B6" stroke-width="2"/><line x1="640.0" y1="223.1" x2="648.1" y2="250.2" stroke="#4C86B6" stroke-width="2"/>
<text x="640.0" y="299" text-anchor="middle" font-family="Arial" font-size="18" font-weight="700" fill="#233B53">API Gateway</text>
</g>
<g id="scheduler" filter="url(#shadow)"><rect x="820" y="155" width="240" height="175" rx="18" fill="#F9F0E4" stroke="#D48345" stroke-width="2.5"/>
<rect x="899.5" y="193.4" width="72.9" height="14.0" rx="3.2" fill="#B8D8E9" stroke="#233B53" stroke-width="2"/><rect x="899.5" y="214.4" width="58.3" height="14.0" rx="3.2" fill="#D9E8F1" stroke="#233B53" stroke-width="2"/><rect x="899.5" y="235.4" width="44.6" height="14.0" rx="3.2" fill="#F1DFC4" stroke="#233B53" stroke-width="2"/><line x1="978.9" y1="194.2" x2="978.9" y2="247.6" stroke="#D48345" stroke-width="3"/><line x1="975.6" y1="243.2" x2="978.9" y2="248.5" stroke="#D48345" stroke-width="3"/><line x1="982.1" y1="243.2" x2="978.9" y2="248.5" stroke="#D48345" stroke-width="3"/><circle cx="889.8" cy="221.4" r="10.5" fill="#FFFFFF" stroke="#D48345" stroke-width="2"/><line x1="889.8" y1="221.4" x2="889.8" y2="213.5" stroke="#D48345" stroke-width="2"/><line x1="889.8" y1="221.4" x2="896.3" y2="225.8" stroke="#D48345" stroke-width="2"/>
<text x="940.0" y="299" text-anchor="middle" font-family="Arial" font-size="18" font-weight="700" fill="#233B53">Batch Scheduler</text>
</g>
<g id="workers" filter="url(#shadow)"><rect x="650" y="475" width="300" height="190" rx="18" fill="#F9F0E4" stroke="#D48345" stroke-width="2.5"/>
<rect x="737.2" y="521.6" width="38.5" height="52.3" rx="5.1" fill="#D9EAF4" stroke="#4C86B6" stroke-width="2"/><rect x="782.8" y="521.6" width="38.5" height="52.3" rx="5.1" fill="#E4EDF3" stroke="#4C86B6" stroke-width="2"/><rect x="828.4" y="521.6" width="38.5" height="52.3" rx="5.1" fill="#E8E1F1" stroke="#4C86B6" stroke-width="2"/><circle cx="756.5" cy="547.2" r="7.6" fill="#F3C07F" stroke="#D48345" stroke-width="2"/><circle cx="802.0" cy="547.2" r="7.6" fill="#F3C07F" stroke="#D48345" stroke-width="2"/><circle cx="847.6" cy="547.2" r="7.6" fill="#F3C07F" stroke="#D48345" stroke-width="2"/>
<text x="800.0" y="634" text-anchor="middle" font-family="Arial" font-size="18" font-weight="700" fill="#233B53">GPU Model Workers</text>
</g>
<g id="cache" filter="url(#shadow)"><rect x="1225" y="175" width="285" height="165" rx="18" fill="#EAF2F8" stroke="#4C86B6" stroke-width="2.5"/>
<rect x="1313.6" y="214.0" width="46.2" height="51.2" rx="5.8" fill="#D9E8F3" stroke="#4C86B6" stroke-width="2"/><rect x="1375.2" y="214.0" width="46.2" height="51.2" rx="5.8" fill="#E8E1F1" stroke="#8062A8" stroke-width="2"/><rect x="1322.3" y="223.9" width="7.7" height="31.4" rx="1.9" fill="#FFFFFF" stroke="#233B53" stroke-width="1"/><rect x="1333.8" y="223.9" width="7.7" height="31.4" rx="1.9" fill="#FFFFFF" stroke="#233B53" stroke-width="1"/><rect x="1345.4" y="223.9" width="7.7" height="31.4" rx="1.9" fill="#FFFFFF" stroke="#233B53" stroke-width="1"/><rect x="1383.9" y="223.9" width="7.7" height="31.4" rx="1.9" fill="#FFFFFF" stroke="#233B53" stroke-width="1"/><rect x="1395.4" y="223.9" width="7.7" height="31.4" rx="1.9" fill="#FFFFFF" stroke="#233B53" stroke-width="1"/><rect x="1406.9" y="223.9" width="7.7" height="31.4" rx="1.9" fill="#FFFFFF" stroke="#233B53" stroke-width="1"/>
<text x="1367.5" y="309" text-anchor="middle" font-family="Arial" font-size="18" font-weight="700" fill="#233B53">KV Cache</text>
</g>
<g id="response" filter="url(#shadow)"><rect x="1225" y="500" width="285" height="165" rx="18" fill="#F9F0E4" stroke="#D48345" stroke-width="2.5"/>
<rect x="1309.8" y="556.3" width="115.4" height="18.2" rx="4.8" fill="#F4E4CD" stroke="#D48345" stroke-width="2"/><circle cx="1321.3" cy="565.4" r="4.1" fill="#E5B376" stroke="#233B53" stroke-width="2"/><circle cx="1344.4" cy="565.4" r="4.1" fill="#E5B376" stroke="#233B53" stroke-width="2"/><circle cx="1367.5" cy="565.4" r="4.1" fill="#E5B376" stroke="#233B53" stroke-width="2"/><circle cx="1390.6" cy="565.4" r="4.1" fill="#E5B376" stroke="#233B53" stroke-width="2"/><circle cx="1413.7" cy="565.4" r="4.1" fill="#E5B376" stroke="#233B53" stroke-width="2"/>
<text x="1367.5" y="634" text-anchor="middle" font-family="Arial" font-size="18" font-weight="700" fill="#233B53">Streaming Response</text>
</g>
</svg>