<svg xmlns="http://www.w3.org/2000/svg" width="1600" height="1490" viewBox="0 0 1600 1490"><rect width="100%" height="100%" fill="#FFFFFF"/><text x="800" y="55" text-anchor="middle" font-family="Arial" font-size="34" font-weight="700" fill="#233B53">Hot-Topic CS &amp; AI Editable Module Library</text>
<g id="catalog-decoder-only-llm"><rect x="30" y="90" width="285" height="165" rx="18" fill="#EAF2F8" stroke="#4C86B6" stroke-width="2"/><rect x="132.6" y="113.9" width="71.8" height="48.5" rx="6.1" fill="#E7EFF6" stroke="#233B53" stroke-width="2"/><rect x="139.6" y="118.1" width="71.8" height="48.5" rx="6.1" fill="#D8E7F2" stroke="#233B53" stroke-width="2"/><rect x="146.6" y="122.3" width="71.8" height="48.5" rx="6.1" fill="#C8DFEC" stroke="#233B53" stroke-width="2"/><rect x="153.6" y="126.4" width="71.8" height="48.5" rx="6.1" fill="#B5D5E6" stroke="#233B53" stroke-width="2"/><line x1="155.4" y1="133.1" x2="205.2" y2="133.1" stroke="#FFFFFF" stroke-width="3"/><line x1="155.4" y1="145.7" x2="205.2" y2="145.7" stroke="#FFFFFF" stroke-width="3"/><line x1="155.4" y1="158.2" x2="205.2" y2="158.2" stroke="#FFFFFF" stroke-width="3"/><rect x="121.2" y="171.6" width="10.5" height="10.0" rx="1.8" fill="#78B7D8" stroke="#233B53" stroke-width="1"/><rect x="136.1" y="171.6" width="10.5" height="10.0" rx="1.8" fill="#91C49A" stroke="#233B53" stroke-width="1"/><rect x="151.0" y="171.6" width="10.5" height="10.0" rx="1.8" fill="#E6B16D" stroke="#233B53" stroke-width="1"/><rect x="165.9" y="171.6" width="10.5" height="10.0" rx="1.8" fill="#78B7D8" stroke="#233B53" stroke-width="1"/><rect x="180.8" y="171.6" width="10.5" height="10.0" rx="1.8" fill="#91C49A" stroke="#233B53" stroke-width="1"/><rect x="195.6" y="171.6" width="10.5" height="10.0" rx="1.8" fill="#E6B16D" stroke="#233B53" stroke-width="1"/><line x1="217.5" y1="121.4" x2="217.5" y2="159.9" stroke="#8062A8" stroke-width="3"/><line x1="212.2" y1="154.9" x2="217.5" y2="160.7" stroke="#8062A8" stroke-width="3"/><line x1="222.8" y1="154.9" x2="217.5" y2="160.7" stroke="#8062A8" stroke-width="3"/><text x="172.5" y="216" text-anchor="middle" font-family="Arial" font-size="17" font-weight="700" fill="#233B53">Decoder-only LLM</text><text x="172.5" y="239" text-anchor="middle" font-family="Arial" font-size="11" fill="#5E7183">stacked decoder cards with token ports</text></g>
<g id="catalog-prompt-instruction"><rect x="340" y="90" width="285" height="165" rx="18" fill="#EAF2F8" stroke="#4C86B6" stroke-width="2"/><rect x="427.8" y="114.7" width="39.4" height="54.4" rx="5.2" fill="#FFFFFF" stroke="#233B53" stroke-width="2"/><rect x="497.8" y="114.7" width="38.5" height="54.4" rx="5.2" fill="#E8F1E5" stroke="#5B9561" stroke-width="2"/><line x1="468.9" y1="141.5" x2="495.1" y2="141.5" stroke="#4C86B6" stroke-width="3"/><line x1="435.6" y1="128.1" x2="458.4" y2="128.1" stroke="#9CAEBB" stroke-width="2"/><line x1="435.6" y1="138.1" x2="458.4" y2="138.1" stroke="#9CAEBB" stroke-width="2"/><line x1="435.6" y1="148.2" x2="458.4" y2="148.2" stroke="#9CAEBB" stroke-width="2"/><text x="482.5" y="216" text-anchor="middle" font-family="Arial" font-size="17" font-weight="700" fill="#233B53">Prompt / Instruction</text><text x="482.5" y="239" text-anchor="middle" font-family="Arial" font-size="11" fill="#5E7183">document card feeding token cells</text></g>
<g id="catalog-rag-pipeline"><rect x="650" y="90" width="285" height="165" rx="18" fill="#EAF2F8" stroke="#4C86B6" stroke-width="2"/><rect x="737.8" y="114.7" width="39.4" height="54.4" rx="5.2" fill="#FFFFFF" stroke="#233B53" stroke-width="2"/><rect x="807.8" y="114.7" width="38.5" height="54.4" rx="5.2" fill="#E8F1E5" stroke="#5B9561" stroke-width="2"/><line x1="778.9" y1="141.5" x2="805.1" y2="141.5" stroke="#4C86B6" stroke-width="3"/><line x1="745.6" y1="128.1" x2="768.4" y2="128.1" stroke="#9CAEBB" stroke-width="2"/><line x1="745.6" y1="138.1" x2="768.4" y2="138.1" stroke="#9CAEBB" stroke-width="2"/><line x1="745.6" y1="148.2" x2="768.4" y2="148.2" stroke="#9CAEBB" stroke-width="2"/><circle cx="792.0" cy="141.5" r="7.5" fill="#F5C686" stroke="#D48345" stroke-width="2"/><line x1="786.8" y1="147.3" x2="779.8" y2="155.7" stroke="#D48345" stroke-width="3"/><text x="792.5" y="216" text-anchor="middle" font-family="Arial" font-size="17" font-weight="700" fill="#233B53">RAG Pipeline</text><text x="792.5" y="239" text-anchor="middle" font-family="Arial" font-size="11" fill="#5E7183">query-retrieve-rerank-generate chain</text></g>
<g id="catalog-vector-database"><rect x="960" y="90" width="285" height="165" rx="18" fill="#EAF2F8" stroke="#4C86B6" stroke-width="2"/><path d="M 1067.0 124.7 C 1067.0 114.7, 1137.0 114.7, 1137.0 124.7 V 169.1 C 1137.0 179.1, 1067.0 179.1, 1067.0 169.1 Z" fill="#E7F0F6" stroke="#233B53" stroke-width="2"/><rect x="1077.5" y="131.5" width="7.0" height="18.4" rx="1.8" fill="#78B6D8" stroke="#233B53" stroke-width="1"/><rect x="1088.9" y="144.0" width="7.0" height="18.4" rx="1.8" fill="#83BE8C" stroke="#233B53" stroke-width="1"/><rect x="1100.2" y="131.5" width="7.0" height="18.4" rx="1.8" fill="#E6AD64" stroke="#233B53" stroke-width="1"/><rect x="1111.6" y="144.0" width="7.0" height="18.4" rx="1.8" fill="#78B6D8" stroke="#233B53" stroke-width="1"/><rect x="1123.0" y="131.5" width="7.0" height="18.4" rx="1.8" fill="#83BE8C" stroke="#233B53" stroke-width="1"/><circle cx="1147.5" cy="139.8" r="7.5" fill="#E7DDF0" stroke="#8062A8" stroke-width="2"/><line x1="1137.0" y1="139.8" x2="1139.6" y2="139.8" stroke="#8062A8" stroke-width="3"/><line x1="1144.9" y1="134.0" x2="1151.0" y2="145.7" stroke="#8062A8" stroke-width="2"/><text x="1102.5" y="216" text-anchor="middle" font-family="Arial" font-size="17" font-weight="700" fill="#233B53">Vector Database</text><text x="1102.5" y="239" text-anchor="middle" font-family="Arial" font-size="11" fill="#5E7183">database cylinder with embedding cells</text></g>
<g id="catalog-reranker"><rect x="1270" y="90" width="285" height="165" rx="18" fill="#EAF2F8" stroke="#4C86B6" stroke-width="2"/><rect x="1368.2" y="115.6" width="78.8" height="13.4" rx="3.5" fill="#B8D8E9" stroke="#233B53" stroke-width="2"/><rect x="1368.2" y="135.6" width="63.0" height="13.4" rx="3.5" fill="#D9E8F1" stroke="#233B53" stroke-width="2"/><rect x="1368.2" y="155.7" width="48.1" height="13.4" rx="3.5" fill="#F1DFC4" stroke="#233B53" stroke-width="2"/><line x1="1454.0" y1="116.4" x2="1454.0" y2="167.4" stroke="#D48345" stroke-width="3"/><line x1="1450.5" y1="163.2" x2="1454.0" y2="168.3" stroke="#D48345" stroke-width="3"/><line x1="1457.5" y1="163.2" x2="1454.0" y2="168.3" stroke="#D48345" stroke-width="3"/><text x="1357.8" y="122.3" text-anchor="middle" font-family="Arial" font-size="13" font-weight="700" fill="#233B53">1</text><text x="1357.8" y="142.3" text-anchor="middle" font-family="Arial" font-size="13" font-weight="700" fill="#233B53">2</text><text x="1357.8" y="162.4" text-anchor="middle" font-family="Arial" font-size="13" font-weight="700" fill="#233B53">3</text><text x="1412.5" y="216" text-anchor="middle" font-family="Arial" font-size="17" font-weight="700" fill="#233B53">Reranker</text><text x="1412.5" y="239" text-anchor="middle" font-family="Arial" font-size="11" fill="#5E7183">ranked document stack</text></g>
<g id="catalog-lora-adapter"><rect x="30" y="285" width="285" height="165" rx="18" fill="#EAF2F8" stroke="#4C86B6" stroke-width="2"/><rect x="144.0" y="305.5" width="56.0" height="66.9" rx="5.2" fill="#E4E9EE" stroke="#233B53" stroke-width="2"/><rect x="117.8" y="318.1" width="19.2" height="41.8" rx="5.2" fill="#F1DFC8" stroke="#D48345" stroke-width="2"/><line x1="137.0" y1="339.0" x2="144.0" y2="339.0" stroke="#D48345" stroke-width="3"/><line x1="200.0" y1="339.0" x2="222.8" y2="339.0" stroke="#4C86B6" stroke-width="3"/><rect x="154.5" y="318.1" width="35.0" height="8.4" rx="2.6" fill="#AFC9DC" stroke="#233B53" stroke-width="1"/><rect x="154.5" y="331.5" width="35.0" height="8.4" rx="2.6" fill="#AFC9DC" stroke="#233B53" stroke-width="1"/><rect x="154.5" y="344.9" width="35.0" height="8.4" rx="2.6" fill="#AFC9DC" stroke="#233B53" stroke-width="1"/><text x="172.5" y="411" text-anchor="middle" font-family="Arial" font-size="17" font-weight="700" fill="#233B53">LoRA / Adapter</text><text x="172.5" y="434" text-anchor="middle" font-family="Arial" font-size="11" fill="#5E7183">narrow side branch beside frozen layer</text></g>
<g id="catalog-moe-routing"><rect x="340" y="285" width="285" height="165" rx="18" fill="#EAF2F8" stroke="#4C86B6" stroke-width="2"/><rect x="424.2" y="323.9" width="30.6" height="29.3" rx="5.2" fill="#F1DFC8" stroke="#D48345" stroke-width="2"/><line x1="454.9" y1="339.0" x2="479.4" y2="339.0" stroke="#D48345" stroke-width="3"/><rect x="483.8" y="304.7" width="48.1" height="18.4" rx="4.4" fill="#D9EAF4" stroke="#233B53" stroke-width="2"/><line x1="479.4" y1="339.0" x2="483.8" y2="313.9" stroke="#4C86B6" stroke-width="2"/><rect x="483.8" y="328.1" width="48.1" height="18.4" rx="4.4" fill="#E6F1E3" stroke="#233B53" stroke-width="2"/><line x1="479.4" y1="339.0" x2="483.8" y2="337.3" stroke="#4C86B6" stroke-width="2"/><rect x="483.8" y="351.5" width="48.1" height="18.4" rx="4.4" fill="#EEE5F5" stroke="#233B53" stroke-width="2"/><line x1="479.4" y1="339.0" x2="483.8" y2="360.7" stroke="#4C86B6" stroke-width="2"/><text x="482.5" y="411" text-anchor="middle" font-family="Arial" font-size="17" font-weight="700" fill="#233B53">Mixture of Experts</text><text x="482.5" y="434" text-anchor="middle" font-family="Arial" font-size="11" fill="#5E7183">router fan-out to expert bank</text></g>
<g id="catalog-kv-cache"><rect x="650" y="285" width="285" height="165" rx="18" fill="#EAF2F8" stroke="#4C86B6" stroke-width="2"/><rect x="743.0" y="312.2" width="42.0" height="51.9" rx="5.2" fill="#D9E8F3" stroke="#4C86B6" stroke-width="2"/><rect x="799.0" y="312.2" width="42.0" height="51.9" rx="5.2" fill="#E8E1F1" stroke="#8062A8" stroke-width="2"/><rect x="750.9" y="322.3" width="7.0" height="31.8" rx="1.8" fill="#FFFFFF" stroke="#233B53" stroke-width="1"/><rect x="761.4" y="322.3" width="7.0" height="31.8" rx="1.8" fill="#FFFFFF" stroke="#233B53" stroke-width="1"/><rect x="771.9" y="322.3" width="7.0" height="31.8" rx="1.8" fill="#FFFFFF" stroke="#233B53" stroke-width="1"/><rect x="806.9" y="322.3" width="7.0" height="31.8" rx="1.8" fill="#FFFFFF" stroke="#233B53" stroke-width="1"/><rect x="817.4" y="322.3" width="7.0" height="31.8" rx="1.8" fill="#FFFFFF" stroke="#233B53" stroke-width="1"/><rect x="827.9" y="322.3" width="7.0" height="31.8" rx="1.8" fill="#FFFFFF" stroke="#233B53" stroke-width="1"/><text x="792.5" y="411" text-anchor="middle" font-family="Arial" font-size="17" font-weight="700" fill="#233B53">KV Cache</text><text x="792.5" y="434" text-anchor="middle" font-family="Arial" font-size="11" fill="#5E7183">paired K/V memory blocks</text></g>
<g id="catalog-alignment-training"><rect x="960" y="285" width="285" height="165" rx="18" fill="#EAF2F8" stroke="#4C86B6" stroke-width="2"/><circle cx="1069.6" cy="334.8" r="15.1" fill="#D9EAF4" stroke="#4C86B6" stroke-width="2"/><circle cx="1133.5" cy="334.8" r="15.1" fill="#E8E1F1" stroke="#8062A8" stroke-width="2"/><line x1="1085.4" y1="334.8" x2="1117.8" y2="334.8" stroke="#C96863" stroke-width="3"/><line x1="1117.8" y1="347.4" x2="1085.4" y2="347.4" stroke="#5B9561" stroke-width="2" stroke-dasharray="6 4"/><path d="M 1126.5 334.0 l 6 7 l 13 -16" fill="none" stroke="#5B9561" stroke-width="4"/><rect x="1043.4" y="309.7" width="15.8" height="15.1" rx="3.5" fill="#DDEBF4" stroke="#4C86B6" stroke-width="2"/><rect x="1043.4" y="353.2" width="15.8" height="15.1" rx="3.5" fill="#F3E4D0" stroke="#D48345" stroke-width="2"/><text x="1102.5" y="411" text-anchor="middle" font-family="Arial" font-size="17" font-weight="700" fill="#233B53">SFT / RLHF / DPO</text><text x="1102.5" y="434" text-anchor="middle" font-family="Arial" font-size="11" fill="#5E7183">policy-reward-preference loop</text></g>
<g id="catalog-tool-calling"><rect x="1270" y="285" width="285" height="165" rx="18" fill="#EAF2F8" stroke="#4C86B6" stroke-width="2"/><rect x="1363.9" y="309.7" width="96.2" height="58.5" rx="8.8" fill="#F4E7D5" stroke="#D48345" stroke-width="2"/><line x1="1392.8" y1="330.6" x2="1407.6" y2="339.0" stroke="#233B53" stroke-width="3"/><line x1="1407.6" y1="339.0" x2="1392.8" y2="347.4" stroke="#233B53" stroke-width="3"/><line x1="1415.5" y1="348.2" x2="1437.4" y2="348.2" stroke="#4C86B6" stroke-width="3"/><text x="1412.5" y="411" text-anchor="middle" font-family="Arial" font-size="17" font-weight="700" fill="#233B53">Tool / Function Calling</text><text x="1412.5" y="434" text-anchor="middle" font-family="Arial" font-size="11" fill="#5E7183">LLM-to-tool request/result loop</text></g>
<g id="catalog-planner-agent"><rect x="30" y="480" width="285" height="165" rx="18" fill="#F1ECF7" stroke="#8062A8" stroke-width="2"/><circle cx="172.0" cy="516.4" r="13.4" fill="#E8E1F1" stroke="#8062A8" stroke-width="2"/><rect x="151.0" y="531.5" width="42.0" height="29.3" rx="10.5" fill="#EFE9F5" stroke="#8062A8" stroke-width="2"/><circle cx="123.9" cy="564.9" r="5.0" fill="#F5C686" stroke="#D48345" stroke-width="2"/><circle cx="172.0" cy="564.9" r="5.0" fill="#F5C686" stroke="#D48345" stroke-width="2"/><circle cx="220.1" cy="564.9" r="5.0" fill="#F5C686" stroke="#D48345" stroke-width="2"/><line x1="172.0" y1="550.7" x2="123.9" y2="559.9" stroke="#8062A8" stroke-width="2"/><line x1="172.0" y1="550.7" x2="172.0" y2="559.9" stroke="#8062A8" stroke-width="2"/><line x1="172.0" y1="550.7" x2="220.1" y2="559.9" stroke="#8062A8" stroke-width="2"/><text x="172.5" y="606" text-anchor="middle" font-family="Arial" font-size="17" font-weight="700" fill="#233B53">Planner Agent</text><text x="172.5" y="629" text-anchor="middle" font-family="Arial" font-size="11" fill="#5E7183">planner card with task branches</text></g>
<g id="catalog-role-agent"><rect x="340" y="480" width="285" height="165" rx="18" fill="#F1ECF7" stroke="#8062A8" stroke-width="2"/><circle cx="482.0" cy="516.4" r="13.4" fill="#E8E1F1" stroke="#8062A8" stroke-width="2"/><rect x="461.0" y="531.5" width="42.0" height="29.3" rx="10.5" fill="#EFE9F5" stroke="#8062A8" stroke-width="2"/><text x="482.5" y="606" text-anchor="middle" font-family="Arial" font-size="17" font-weight="700" fill="#233B53">Role Agent</text><text x="482.5" y="629" text-anchor="middle" font-family="Arial" font-size="11" fill="#5E7183">person/agent node with role badge</text></g>
<g id="catalog-multi-agent-network"><rect x="650" y="480" width="285" height="165" rx="18" fill="#F1ECF7" stroke="#8062A8" stroke-width="2"/><line x1="746.5" y1="511.4" x2="792.0" y2="503.1" stroke="#8062A8" stroke-width="2"/><line x1="792.0" y1="503.1" x2="837.5" y2="511.4" stroke="#8062A8" stroke-width="2"/><line x1="746.5" y1="511.4" x2="761.4" y2="553.2" stroke="#8062A8" stroke-width="2"/><line x1="792.0" y1="503.1" x2="761.4" y2="553.2" stroke="#8062A8" stroke-width="2"/><line x1="792.0" y1="503.1" x2="822.6" y2="553.2" stroke="#8062A8" stroke-width="2"/><line x1="837.5" y1="511.4" x2="822.6" y2="553.2" stroke="#8062A8" stroke-width="2"/><line x1="761.4" y1="553.2" x2="822.6" y2="553.2" stroke="#8062A8" stroke-width="2"/><circle cx="746.5" cy="511.4" r="8.4" fill="#A9D1E6" stroke="#233B53" stroke-width="2"/><circle cx="792.0" cy="503.1" r="8.4" fill="#E5B681" stroke="#233B53" stroke-width="2"/><circle cx="837.5" cy="511.4" r="8.4" fill="#A9CEA6" stroke="#233B53" stroke-width="2"/><circle cx="761.4" cy="553.2" r="8.4" fill="#C9B5DD" stroke="#233B53" stroke-width="2"/><circle cx="822.6" cy="553.2" r="8.4" fill="#E99F9B" stroke="#233B53" stroke-width="2"/><text x="792.5" y="606" text-anchor="middle" font-family="Arial" font-size="17" font-weight="700" fill="#233B53">Multi-Agent Network</text><text x="792.5" y="629" text-anchor="middle" font-family="Arial" font-size="11" fill="#5E7183">typed agent nodes with message edges</text></g>
<g id="catalog-shared-memory"><rect x="960" y="480" width="285" height="165" rx="18" fill="#F1ECF7" stroke="#8062A8" stroke-width="2"/><rect x="1056.5" y="504.7" width="71.8" height="46.0" rx="6.1" fill="#F1EAF6" stroke="#8062A8" stroke-width="2"/><rect x="1065.2" y="512.3" width="71.8" height="46.0" rx="6.1" fill="#E5DAEF" stroke="#8062A8" stroke-width="2"/><rect x="1074.0" y="519.8" width="71.8" height="46.0" rx="6.1" fill="#D6C6E5" stroke="#8062A8" stroke-width="2"/><line x1="1088.0" y1="528.1" x2="1135.2" y2="528.1" stroke="#FFFFFF" stroke-width="3"/><line x1="1088.0" y1="539.0" x2="1135.2" y2="539.0" stroke="#FFFFFF" stroke-width="3"/><line x1="1088.0" y1="549.9" x2="1135.2" y2="549.9" stroke="#FFFFFF" stroke-width="3"/><text x="1102.5" y="606" text-anchor="middle" font-family="Arial" font-size="17" font-weight="700" fill="#233B53">Shared Memory</text><text x="1102.5" y="629" text-anchor="middle" font-family="Arial" font-size="11" fill="#5E7183">memory bank connected to agents</text></g>
<g id="catalog-message-bus"><rect x="1270" y="480" width="285" height="165" rx="18" fill="#F1ECF7" stroke="#8062A8" stroke-width="2"/><line x1="1366.5" y1="511.4" x2="1412.0" y2="503.1" stroke="#8062A8" stroke-width="2"/><line x1="1412.0" y1="503.1" x2="1457.5" y2="511.4" stroke="#8062A8" stroke-width="2"/><line x1="1366.5" y1="511.4" x2="1381.4" y2="553.2" stroke="#8062A8" stroke-width="2"/><line x1="1412.0" y1="503.1" x2="1381.4" y2="553.2" stroke="#8062A8" stroke-width="2"/><line x1="1412.0" y1="503.1" x2="1442.6" y2="553.2" stroke="#8062A8" stroke-width="2"/><line x1="1457.5" y1="511.4" x2="1442.6" y2="553.2" stroke="#8062A8" stroke-width="2"/><line x1="1381.4" y1="553.2" x2="1442.6" y2="553.2" stroke="#8062A8" stroke-width="2"/><circle cx="1366.5" cy="511.4" r="8.4" fill="#A9D1E6" stroke="#233B53" stroke-width="2"/><circle cx="1412.0" cy="503.1" r="8.4" fill="#E5B681" stroke="#233B53" stroke-width="2"/><circle cx="1457.5" cy="511.4" r="8.4" fill="#A9CEA6" stroke="#233B53" stroke-width="2"/><circle cx="1381.4" cy="553.2" r="8.4" fill="#C9B5DD" stroke="#233B53" stroke-width="2"/><circle cx="1442.6" cy="553.2" r="8.4" fill="#E99F9B" stroke="#233B53" stroke-width="2"/><rect x="1361.2" y="528.1" width="101.5" height="11.7" rx="3.5" fill="#FFFFFF" stroke="#8062A8" stroke-width="2"/><text x="1412.5" y="606" text-anchor="middle" font-family="Arial" font-size="17" font-weight="700" fill="#233B53">Message Bus</text><text x="1412.5" y="629" text-anchor="middle" font-family="Arial" font-size="11" fill="#5E7183">horizontal bus with typed packets</text></g>
<g id="catalog-critic-verifier"><rect x="30" y="675" width="285" height="165" rx="18" fill="#F1ECF7" stroke="#8062A8" stroke-width="2"/><circle cx="139.6" cy="724.8" r="15.1" fill="#D9EAF4" stroke="#4C86B6" stroke-width="2"/><circle cx="203.5" cy="724.8" r="15.1" fill="#E8E1F1" stroke="#8062A8" stroke-width="2"/><line x1="155.4" y1="724.8" x2="187.8" y2="724.8" stroke="#C96863" stroke-width="3"/><line x1="187.8" y1="737.4" x2="155.4" y2="737.4" stroke="#5B9561" stroke-width="2" stroke-dasharray="6 4"/><path d="M 196.5 724.0 l 6 7 l 13 -16" fill="none" stroke="#5B9561" stroke-width="4"/><path d="M 172.0 695.5 L 186.0 702.2 L 183.4 718.1 L 172.0 726.5 L 160.6 718.1 L 158.0 702.2 Z" fill="#E7F1E4" stroke="#5B9561" stroke-width="2"/><text x="172.5" y="801" text-anchor="middle" font-family="Arial" font-size="17" font-weight="700" fill="#233B53">Critic / Verifier</text><text x="172.5" y="824" text-anchor="middle" font-family="Arial" font-size="11" fill="#5E7183">evaluation node returning feedback</text></g>
<g id="catalog-environment-loop"><rect x="340" y="675" width="285" height="165" rx="18" fill="#F1ECF7" stroke="#8062A8" stroke-width="2"/><circle cx="482.0" cy="729.0" r="23.4" fill="#E7F0E5" stroke="#5B9561" stroke-width="2"/><line x1="482.0" y1="698.1" x2="515.2" y2="712.3" stroke="#4C86B6" stroke-width="3"/><line x1="522.2" y1="719.8" x2="515.2" y2="748.2" stroke="#4C86B6" stroke-width="3"/><line x1="506.5" y1="756.6" x2="459.2" y2="756.6" stroke="#4C86B6" stroke-width="3"/><line x1="445.2" y1="749.1" x2="440.0" y2="718.1" stroke="#4C86B6" stroke-width="3"/><line x1="448.8" y1="707.3" x2="471.5" y2="698.1" stroke="#4C86B6" stroke-width="3"/><text x="482.5" y="801" text-anchor="middle" font-family="Arial" font-size="17" font-weight="700" fill="#233B53">Environment Loop</text><text x="482.5" y="824" text-anchor="middle" font-family="Arial" font-size="11" fill="#5E7183">observation-planning-action-feedback cycle</text></g>
<g id="catalog-tool-sandbox"><rect x="650" y="675" width="285" height="165" rx="18" fill="#F1ECF7" stroke="#8062A8" stroke-width="2"/><rect x="743.9" y="699.7" width="96.2" height="58.5" rx="8.8" fill="#F4E7D5" stroke="#D48345" stroke-width="2"/><rect x="759.6" y="711.4" width="64.8" height="35.1" rx="3.5" fill="#FFFFFF" stroke="#233B53" stroke-width="2"/><line x1="772.8" y1="720.6" x2="787.6" y2="729.0" stroke="#233B53" stroke-width="3"/><line x1="787.6" y1="729.0" x2="772.8" y2="737.4" stroke="#233B53" stroke-width="3"/><line x1="795.5" y1="738.2" x2="817.4" y2="738.2" stroke="#4C86B6" stroke-width="3"/><text x="792.5" y="801" text-anchor="middle" font-family="Arial" font-size="17" font-weight="700" fill="#233B53">Tool Sandbox</text><text x="792.5" y="824" text-anchor="middle" font-family="Arial" font-size="11" fill="#5E7183">isolated tool container</text></g>
<g id="catalog-vision-transformer"><rect x="960" y="675" width="285" height="165" rx="18" fill="#EAF4EA" stroke="#5B9561" stroke-width="2"/><rect x="1062.6" y="698.9" width="71.8" height="48.5" rx="6.1" fill="#E7EFF6" stroke="#233B53" stroke-width="2"/><rect x="1069.6" y="703.1" width="71.8" height="48.5" rx="6.1" fill="#D8E7F2" stroke="#233B53" stroke-width="2"/><rect x="1076.6" y="707.3" width="71.8" height="48.5" rx="6.1" fill="#C8DFEC" stroke="#233B53" stroke-width="2"/><rect x="1083.6" y="711.4" width="71.8" height="48.5" rx="6.1" fill="#B5D5E6" stroke="#233B53" stroke-width="2"/><line x1="1085.4" y1="718.1" x2="1135.2" y2="718.1" stroke="#FFFFFF" stroke-width="3"/><line x1="1085.4" y1="730.7" x2="1135.2" y2="730.7" stroke="#FFFFFF" stroke-width="3"/><line x1="1085.4" y1="743.2" x2="1135.2" y2="743.2" stroke="#FFFFFF" stroke-width="3"/><rect x="1039.0" y="706.4" width="21.0" height="45.2" rx="2.6" fill="#E6F1E3" stroke="#5B9561" stroke-width="2"/><line x1="1046.0" y1="706.4" x2="1046.0" y2="751.6" stroke="#FFFFFF" stroke-width="2"/><line x1="1039.0" y1="721.5" x2="1060.0" y2="721.5" stroke="#FFFFFF" stroke-width="2"/><line x1="1053.0" y1="706.4" x2="1053.0" y2="751.6" stroke="#FFFFFF" stroke-width="2"/><line x1="1039.0" y1="736.5" x2="1060.0" y2="736.5" stroke="#FFFFFF" stroke-width="2"/><line x1="1060.9" y1="729.0" x2="1069.6" y2="729.0" stroke="#5B9561" stroke-width="3"/><text x="1102.5" y="801" text-anchor="middle" font-family="Arial" font-size="17" font-weight="700" fill="#233B53">Vision Transformer</text><text x="1102.5" y="824" text-anchor="middle" font-family="Arial" font-size="11" fill="#5E7183">patch tokens entering stacked attention blocks</text></g>
<g id="catalog-patch-embedding"><rect x="1270" y="675" width="285" height="165" rx="18" fill="#EAF4EA" stroke="#5B9561" stroke-width="2"/><rect x="1357.8" y="699.7" width="50.8" height="58.5" rx="3.5" fill="#E8F1E5" stroke="#5B9561" stroke-width="2"/><line x1="1374.4" y1="699.7" x2="1374.4" y2="758.3" stroke="#FFFFFF" stroke-width="2"/><line x1="1357.8" y1="719.0" x2="1408.5" y2="719.0" stroke="#FFFFFF" stroke-width="2"/><line x1="1391.0" y1="699.7" x2="1391.0" y2="758.3" stroke="#FFFFFF" stroke-width="2"/><line x1="1357.8" y1="738.2" x2="1408.5" y2="738.2" stroke="#FFFFFF" stroke-width="2"/><rect x="1422.5" y="709.8" width="7.0" height="37.6" rx="1.8" fill="#7FB9D7" stroke="#233B53" stroke-width="1"/><rect x="1431.2" y="719.8" width="7.0" height="37.6" rx="1.8" fill="#91C49A" stroke="#233B53" stroke-width="1"/><rect x="1440.0" y="709.8" width="7.0" height="37.6" rx="1.8" fill="#E6B26E" stroke="#233B53" stroke-width="1"/><rect x="1448.8" y="719.8" width="7.0" height="37.6" rx="1.8" fill="#7FB9D7" stroke="#233B53" stroke-width="1"/><rect x="1457.5" y="709.8" width="7.0" height="37.6" rx="1.8" fill="#91C49A" stroke="#233B53" stroke-width="1"/><line x1="1410.2" y1="729.0" x2="1419.9" y2="729.0" stroke="#4C86B6" stroke-width="3"/><text x="1412.5" y="801" text-anchor="middle" font-family="Arial" font-size="17" font-weight="700" fill="#233B53">Patch Embedding</text><text x="1412.5" y="824" text-anchor="middle" font-family="Arial" font-size="11" fill="#5E7183">image grid unfolding into token cells</text></g>
<g id="catalog-feature-pyramid"><rect x="30" y="870" width="285" height="165" rx="18" fill="#EAF4EA" stroke="#5B9561" stroke-width="2"/><rect x="121.2" y="897.2" width="74.4" height="48.5" rx="2.6" fill="#C8E0D1" stroke="#5B9561" stroke-width="2"/><rect x="140.5" y="904.8" width="56.9" height="38.5" rx="2.6" fill="#B6D7C2" stroke="#5B9561" stroke-width="2"/><rect x="159.8" y="912.3" width="39.4" height="28.4" rx="2.6" fill="#9DC9AD" stroke="#5B9561" stroke-width="2"/><text x="172.5" y="996" text-anchor="middle" font-family="Arial" font-size="17" font-weight="700" fill="#233B53">Feature Pyramid</text><text x="172.5" y="1019" text-anchor="middle" font-family="Arial" font-size="11" fill="#5E7183">layered feature maps at decreasing resolution</text></g>
<g id="catalog-object-detection"><rect x="340" y="870" width="285" height="165" rx="18" fill="#EAF4EA" stroke="#5B9561" stroke-width="2"/><rect x="429.5" y="893.1" width="105.0" height="62.7" rx="3.5" fill="#EAF2F8" stroke="#4C86B6" stroke-width="2"/><rect x="445.2" y="905.6" width="30.6" height="25.9" rx="1.8" fill="none" stroke="#C96863" stroke-width="2"/><rect x="483.8" y="911.5" width="36.8" height="31.8" rx="1.8" fill="none" stroke="#D48345" stroke-width="2"/><text x="482.5" y="996" text-anchor="middle" font-family="Arial" font-size="17" font-weight="700" fill="#233B53">Detection Head</text><text x="482.5" y="1019" text-anchor="middle" font-family="Arial" font-size="11" fill="#5E7183">image with boxes plus class/box heads</text></g>
<g id="catalog-segmentation-decoder"><rect x="650" y="870" width="285" height="165" rx="18" fill="#EAF4EA" stroke="#5B9561" stroke-width="2"/><rect x="739.5" y="893.1" width="105.0" height="62.7" rx="3.5" fill="#EAF2F8" stroke="#4C86B6" stroke-width="2"/><path d="M 749.5 947.1 C 773.5 913.1, 797.5 963.1, 819.5 921.1 C 838.5 902.1, 854.5 915.1, 859.5 929.1 V 968.1 H 739.5 Z" fill="#9ACB9C" opacity=".8"/><text x="792.5" y="996" text-anchor="middle" font-family="Arial" font-size="17" font-weight="700" fill="#233B53">Segmentation Decoder</text><text x="792.5" y="1019" text-anchor="middle" font-family="Arial" font-size="11" fill="#5E7183">feature decoder producing colored mask</text></g>
<g id="catalog-vision-language"><rect x="960" y="870" width="285" height="165" rx="18" fill="#EAF4EA" stroke="#5B9561" stroke-width="2"/><rect x="1044.2" y="898.9" width="39.4" height="46.0" rx="5.2" fill="#DDECF5" stroke="#4C86B6" stroke-width="2"/><rect x="1120.4" y="898.9" width="39.4" height="46.0" rx="5.2" fill="#F2E7D7" stroke="#D48345" stroke-width="2"/><circle cx="1102.0" cy="921.5" r="11.7" fill="#E7DDF0" stroke="#8062A8" stroke-width="2"/><line x1="1083.6" y1="921.5" x2="1089.8" y2="921.5" stroke="#4C86B6" stroke-width="3"/><line x1="1114.2" y1="921.5" x2="1120.4" y2="921.5" stroke="#D48345" stroke-width="3"/><text x="1102.5" y="996" text-anchor="middle" font-family="Arial" font-size="17" font-weight="700" fill="#233B53">Vision-Language Model</text><text x="1102.5" y="1019" text-anchor="middle" font-family="Arial" font-size="11" fill="#5E7183">vision encoder and text encoder joined by bridge</text></g>
<g id="catalog-diffusion-model"><rect x="1270" y="870" width="285" height="165" rx="18" fill="#EAF4EA" stroke="#5B9561" stroke-width="2"/><rect x="1352.5" y="904.8" width="25.4" height="38.5" rx="2.6" fill="#D5D5D5" stroke="#5B9561" stroke-width="2"/><line x1="1377.9" y1="924.0" x2="1384.9" y2="924.0" stroke="#8062A8" stroke-width="2"/><rect x="1384.9" y="904.8" width="25.4" height="38.5" rx="2.6" fill="#C9D7E4" stroke="#5B9561" stroke-width="2"/><line x1="1410.2" y1="924.0" x2="1417.2" y2="924.0" stroke="#8062A8" stroke-width="2"/><rect x="1417.2" y="904.8" width="25.4" height="38.5" rx="2.6" fill="#B3D8C0" stroke="#5B9561" stroke-width="2"/><line x1="1442.6" y1="924.0" x2="1449.6" y2="924.0" stroke="#8062A8" stroke-width="2"/><rect x="1449.6" y="904.8" width="25.4" height="38.5" rx="2.6" fill="#8EC69D" stroke="#5B9561" stroke-width="2"/><text x="1412.5" y="996" text-anchor="middle" font-family="Arial" font-size="17" font-weight="700" fill="#233B53">Diffusion Model</text><text x="1412.5" y="1019" text-anchor="middle" font-family="Arial" font-size="11" fill="#5E7183">noise-to-image timeline with conditional denoiser</text></g>
<g id="catalog-tracking-temporal"><rect x="30" y="1065" width="285" height="165" rx="18" fill="#EAF4EA" stroke="#5B9561" stroke-width="2"/><rect x="110.8" y="1094.7" width="36.8" height="48.5" rx="2.6" fill="#E9F1F6" stroke="#4C86B6" stroke-width="2"/><circle cx="123.9" cy="1113.1" r="5.9" fill="#F0B88D" stroke="#D48345" stroke-width="2"/><rect x="154.5" y="1094.7" width="36.8" height="48.5" rx="2.6" fill="#E9F1F6" stroke="#4C86B6" stroke-width="2"/><circle cx="167.6" cy="1115.7" r="5.9" fill="#F0B88D" stroke="#D48345" stroke-width="2"/><rect x="198.2" y="1094.7" width="36.8" height="48.5" rx="2.6" fill="#E9F1F6" stroke="#4C86B6" stroke-width="2"/><circle cx="211.4" cy="1118.2" r="5.9" fill="#F0B88D" stroke="#D48345" stroke-width="2"/><line x1="123.9" y1="1113.1" x2="167.6" y2="1115.7" stroke="#C96863" stroke-width="2" stroke-dasharray="5 4"/><line x1="167.6" y1="1115.7" x2="211.4" y2="1118.2" stroke="#C96863" stroke-width="2" stroke-dasharray="5 4"/><text x="172.5" y="1191" text-anchor="middle" font-family="Arial" font-size="17" font-weight="700" fill="#233B53">Tracking / Temporal</text><text x="172.5" y="1214" text-anchor="middle" font-family="Arial" font-size="11" fill="#5E7183">frame strip with linked object tracks</text></g>
<g id="catalog-three-d-vision"><rect x="340" y="1065" width="285" height="165" rx="18" fill="#EAF4EA" stroke="#5B9561" stroke-width="2"/><circle cx="468.0" cy="1091.4" r="4.2" fill="#A9D1E6" stroke="#4C86B6" stroke-width="2"/><circle cx="489.0" cy="1096.4" r="4.2" fill="#A9D1E6" stroke="#4C86B6" stroke-width="2"/><circle cx="503.9" cy="1112.3" r="4.2" fill="#A9D1E6" stroke="#4C86B6" stroke-width="2"/><circle cx="491.6" cy="1129.9" r="4.2" fill="#A9D1E6" stroke="#4C86B6" stroke-width="2"/><circle cx="465.4" cy="1134.1" r="4.2" fill="#A9D1E6" stroke="#4C86B6" stroke-width="2"/><circle cx="451.4" cy="1114.0" r="4.2" fill="#A9D1E6" stroke="#4C86B6" stroke-width="2"/><line x1="429.5" y1="1139.9" x2="468.0" y2="1091.4" stroke="#D48345" stroke-width="2"/><line x1="429.5" y1="1139.9" x2="491.6" y2="1129.9" stroke="#D48345" stroke-width="2"/><rect x="515.2" y="1096.4" width="24.5" height="36.8" rx="2.6" fill="#E8F1E5" stroke="#5B9561" stroke-width="2"/><text x="482.5" y="1191" text-anchor="middle" font-family="Arial" font-size="17" font-weight="700" fill="#233B53">3D Vision</text><text x="482.5" y="1214" text-anchor="middle" font-family="Arial" font-size="11" fill="#5E7183">camera rays, point cloud and rendered view</text></g>
<g id="catalog-api-gateway"><rect x="650" y="1065" width="285" height="165" rx="18" fill="#F9F0E4" stroke="#D48345" stroke-width="2"/><rect x="732.5" y="1102.3" width="33.2" height="33.5" rx="5.2" fill="#F3E4CF" stroke="#D48345" stroke-width="2"/><line x1="765.8" y1="1119.0" x2="792.0" y2="1119.0" stroke="#D48345" stroke-width="3"/><rect x="800.8" y="1085.5" width="48.1" height="18.4" rx="4.4" fill="#E6EEF4" stroke="#4C86B6" stroke-width="2"/><line x1="792.0" y1="1119.0" x2="800.8" y2="1094.7" stroke="#4C86B6" stroke-width="2"/><rect x="800.8" y="1110.6" width="48.1" height="18.4" rx="4.4" fill="#E6EEF4" stroke="#4C86B6" stroke-width="2"/><line x1="792.0" y1="1119.0" x2="800.8" y2="1119.8" stroke="#4C86B6" stroke-width="2"/><rect x="800.8" y="1135.7" width="48.1" height="18.4" rx="4.4" fill="#E6EEF4" stroke="#4C86B6" stroke-width="2"/><line x1="792.0" y1="1119.0" x2="800.8" y2="1144.9" stroke="#4C86B6" stroke-width="2"/><text x="792.5" y="1191" text-anchor="middle" font-family="Arial" font-size="17" font-weight="700" fill="#233B53">API Gateway</text><text x="792.5" y="1214" text-anchor="middle" font-family="Arial" font-size="11" fill="#5E7183">gateway fan-out to services</text></g>
<g id="catalog-task-scheduler"><rect x="960" y="1065" width="285" height="165" rx="18" fill="#F9F0E4" stroke="#D48345" stroke-width="2"/><rect x="1058.2" y="1090.6" width="78.8" height="13.4" rx="3.5" fill="#B8D8E9" stroke="#233B53" stroke-width="2"/><rect x="1058.2" y="1110.6" width="63.0" height="13.4" rx="3.5" fill="#D9E8F1" stroke="#233B53" stroke-width="2"/><rect x="1058.2" y="1130.7" width="48.1" height="13.4" rx="3.5" fill="#F1DFC4" stroke="#233B53" stroke-width="2"/><line x1="1144.0" y1="1091.4" x2="1144.0" y2="1142.4" stroke="#D48345" stroke-width="3"/><line x1="1140.5" y1="1138.2" x2="1144.0" y2="1143.3" stroke="#D48345" stroke-width="3"/><line x1="1147.5" y1="1138.2" x2="1144.0" y2="1143.3" stroke="#D48345" stroke-width="3"/><circle cx="1047.8" cy="1117.3" r="10.9" fill="#FFFFFF" stroke="#D48345" stroke-width="2"/><line x1="1047.8" y1="1117.3" x2="1047.8" y2="1109.8" stroke="#D48345" stroke-width="2"/><line x1="1047.8" y1="1117.3" x2="1054.8" y2="1121.5" stroke="#D48345" stroke-width="2"/><text x="1102.5" y="1191" text-anchor="middle" font-family="Arial" font-size="17" font-weight="700" fill="#233B53">Scheduler / Queue</text><text x="1102.5" y="1214" text-anchor="middle" font-family="Arial" font-size="11" fill="#5E7183">ordered queue entering scheduler</text></g>
<g id="catalog-model-serving"><rect x="1270" y="1065" width="285" height="165" rx="18" fill="#F9F0E4" stroke="#D48345" stroke-width="2"/><rect x="1357.8" y="1096.4" width="33.2" height="46.0" rx="4.4" fill="#D9EAF4" stroke="#4C86B6" stroke-width="2"/><rect x="1397.1" y="1096.4" width="33.2" height="46.0" rx="4.4" fill="#E4EDF3" stroke="#4C86B6" stroke-width="2"/><rect x="1436.5" y="1096.4" width="33.2" height="46.0" rx="4.4" fill="#E8E1F1" stroke="#4C86B6" stroke-width="2"/><circle cx="1374.4" cy="1119.0" r="6.7" fill="#F3C07F" stroke="#D48345" stroke-width="2"/><circle cx="1413.8" cy="1119.0" r="6.7" fill="#F3C07F" stroke="#D48345" stroke-width="2"/><circle cx="1453.1" cy="1119.0" r="6.7" fill="#F3C07F" stroke="#D48345" stroke-width="2"/><text x="1412.5" y="1191" text-anchor="middle" font-family="Arial" font-size="17" font-weight="700" fill="#233B53">Model Serving</text><text x="1412.5" y="1214" text-anchor="middle" font-family="Arial" font-size="11" fill="#5E7183">router feeding replicated GPU workers</text></g>
<g id="catalog-microservice"><rect x="30" y="1260" width="285" height="165" rx="18" fill="#F9F0E4" stroke="#D48345" stroke-width="2"/><rect x="119.5" y="1284.7" width="43.8" height="23.4" rx="4.4" fill="#EAF2F8" stroke="#4C86B6" stroke-width="2"/><rect x="180.8" y="1284.7" width="43.8" height="23.4" rx="4.4" fill="#EAF4EA" stroke="#5B9561" stroke-width="2"/><rect x="150.1" y="1323.2" width="43.8" height="23.4" rx="4.4" fill="#F7ECE0" stroke="#D48345" stroke-width="2"/><line x1="163.2" y1="1296.4" x2="180.8" y2="1296.4" stroke="#4C86B6" stroke-width="2"/><line x1="141.4" y1="1308.1" x2="163.2" y2="1323.2" stroke="#5B9561" stroke-width="2"/><line x1="202.6" y1="1308.1" x2="185.1" y2="1323.2" stroke="#D48345" stroke-width="2"/><text x="172.5" y="1386" text-anchor="middle" font-family="Arial" font-size="17" font-weight="700" fill="#233B53">Microservice</text><text x="172.5" y="1409" text-anchor="middle" font-family="Arial" font-size="11" fill="#5E7183">service cards connected by API/event edges</text></g>
<g id="catalog-event-stream"><rect x="340" y="1260" width="285" height="165" rx="18" fill="#F9F0E4" stroke="#D48345" stroke-width="2"/><rect x="429.5" y="1304.8" width="105.0" height="18.4" rx="4.4" fill="#F4E4CD" stroke="#D48345" stroke-width="2"/><circle cx="440.0" cy="1314.0" r="4.2" fill="#E5B376" stroke="#233B53" stroke-width="2"/><circle cx="461.0" cy="1314.0" r="4.2" fill="#E5B376" stroke="#233B53" stroke-width="2"/><circle cx="482.0" cy="1314.0" r="4.2" fill="#E5B376" stroke="#233B53" stroke-width="2"/><circle cx="503.0" cy="1314.0" r="4.2" fill="#E5B376" stroke="#233B53" stroke-width="2"/><circle cx="524.0" cy="1314.0" r="4.2" fill="#E5B376" stroke="#233B53" stroke-width="2"/><text x="482.5" y="1386" text-anchor="middle" font-family="Arial" font-size="17" font-weight="700" fill="#233B53">Event Stream</text><text x="482.5" y="1409" text-anchor="middle" font-family="Arial" font-size="11" fill="#5E7183">topic bus with producers and consumers</text></g>
<g id="catalog-cache-storage"><rect x="650" y="1260" width="285" height="165" rx="18" fill="#F9F0E4" stroke="#D48345" stroke-width="2"/><path d="M 757.0 1294.7 C 757.0 1284.7, 827.0 1284.7, 827.0 1294.7 V 1339.1 C 827.0 1349.1, 757.0 1349.1, 757.0 1339.1 Z" fill="#E7F0F6" stroke="#233B53" stroke-width="2"/><rect x="767.5" y="1301.5" width="7.0" height="18.4" rx="1.8" fill="#78B6D8" stroke="#233B53" stroke-width="1"/><rect x="778.9" y="1314.0" width="7.0" height="18.4" rx="1.8" fill="#83BE8C" stroke="#233B53" stroke-width="1"/><rect x="790.2" y="1301.5" width="7.0" height="18.4" rx="1.8" fill="#E6AD64" stroke="#233B53" stroke-width="1"/><rect x="801.6" y="1314.0" width="7.0" height="18.4" rx="1.8" fill="#78B6D8" stroke="#233B53" stroke-width="1"/><rect x="813.0" y="1301.5" width="7.0" height="18.4" rx="1.8" fill="#83BE8C" stroke="#233B53" stroke-width="1"/><rect x="736.0" y="1284.7" width="19.2" height="18.4" rx="3.5" fill="#F2E2CB" stroke="#D48345" stroke-width="2"/><rect x="736.0" y="1308.1" width="19.2" height="18.4" rx="3.5" fill="#DDEBF4" stroke="#4C86B6" stroke-width="2"/><rect x="736.0" y="1331.6" width="19.2" height="15.1" rx="3.5" fill="#E6F1E3" stroke="#5B9561" stroke-width="2"/><line x1="755.2" y1="1293.9" x2="757.0" y2="1293.9" stroke="#D48345" stroke-width="2"/><line x1="755.2" y1="1317.3" x2="757.0" y2="1317.3" stroke="#4C86B6" stroke-width="2"/><line x1="755.2" y1="1339.1" x2="757.0" y2="1339.1" stroke="#5B9561" stroke-width="2"/><text x="792.5" y="1386" text-anchor="middle" font-family="Arial" font-size="17" font-weight="700" fill="#233B53">Cache / Storage</text><text x="792.5" y="1409" text-anchor="middle" font-family="Arial" font-size="11" fill="#5E7183">cache blocks plus persistent cylinder</text></g>
<g id="catalog-container-orchestration"><rect x="960" y="1260" width="285" height="165" rx="18" fill="#F9F0E4" stroke="#D48345" stroke-width="2"/><rect x="1046.0" y="1281.4" width="112.0" height="65.2" rx="7.0" fill="#F3E9D9" stroke="#D48345" stroke-width="2"/><rect x="1058.2" y="1296.4" width="24.5" height="35.1" rx="3.5" fill="#FFFFFF" stroke="#D48345" stroke-width="2"/><rect x="1090.6" y="1296.4" width="24.5" height="35.1" rx="3.5" fill="#FFFFFF" stroke="#D48345" stroke-width="2"/><rect x="1123.0" y="1296.4" width="24.5" height="35.1" rx="3.5" fill="#FFFFFF" stroke="#D48345" stroke-width="2"/><text x="1102.5" y="1386" text-anchor="middle" font-family="Arial" font-size="17" font-weight="700" fill="#233B53">Container Orchestration</text><text x="1102.5" y="1409" text-anchor="middle" font-family="Arial" font-size="11" fill="#5E7183">cluster boundary with replicated containers</text></g>
<g id="catalog-observability"><rect x="1270" y="1260" width="285" height="165" rx="18" fill="#F9F0E4" stroke="#D48345" stroke-width="2"/><rect x="1359.5" y="1283.1" width="105.0" height="63.6" rx="4.4" fill="#EDF2F5" stroke="#4C86B6" stroke-width="2"/><line x1="1370.0" y1="1329.9" x2="1386.6" y2="1314.0" stroke="#4C86B6" stroke-width="3"/><line x1="1386.6" y1="1314.0" x2="1403.2" y2="1321.5" stroke="#4C86B6" stroke-width="3"/><line x1="1403.2" y1="1321.5" x2="1421.6" y2="1297.3" stroke="#5B9561" stroke-width="3"/><line x1="1421.6" y1="1297.3" x2="1453.1" y2="1306.5" stroke="#5B9561" stroke-width="3"/><text x="1412.5" y="1386" text-anchor="middle" font-family="Arial" font-size="17" font-weight="700" fill="#233B53">Observability</text><text x="1412.5" y="1409" text-anchor="middle" font-family="Arial" font-size="11" fill="#5E7183">metrics/logs/traces feeding dashboard</text></g>
</svg>